# xmcd
#
# Track frame offsets:
#	150
#	13850
#	29000
#	42325
#	56575
#	69025
#	80097
#	97190
#	113235
#	129512
#	144592
#	158367
#	169000
#	185275
#	199452
#	211977
#	223635
#	236722
#	247712
#	260452
#
# Disc length: 3598 seconds
#
# Revision: 0
# Processed by: cddbd v1.5.1PL0 Copyright (c) Steve Scherf et al.
# Submitted via: audiograbber 1.83.01
#
DISCID=1d0e0c14
DTITLE=Lynn Anderson - 20 Golden Hits
DYEAR=1971
DGENRE=Country
TTITLE0=Rose Garden
TTITLE1=We've Only Just Begun
TTITLE2=Top Of The World
TTITLE3=Cry
TTITLE4=Listen To A Country Song
TTITLE5=Ways To Love A Man
TTITLE6=Blue Bayou
TTITLE7=You Need Me
TTITLE8=Devil Went Down To Georgia
TTITLE9=Could I Have A Dance
TTITLE10=Talking In Your Sleep
TTITLE11=Heartbreak Hotel
TTITLE12=I Was Country
TTITLE13=Two Doors Down
TTITLE14=Stand By Your Man
TTITLE15=That'll Be The Day
TTITLE16=Danny's Song
TTITLE17=Heaven's Just A Sin Away
TTITLE18=I Fall To Peaces
TTITLE19=Snowbird
EXTD=
EXTT0=
EXTT1=
EXTT2=
EXTT3=
EXTT4=
EXTT5=
EXTT6=
EXTT7=
EXTT8=
EXTT9=
EXTT10=
EXTT11=
EXTT12=
EXTT13=
EXTT14=
EXTT15=
EXTT16=
EXTT17=
EXTT18=
EXTT19=
PLAYORDER=
